HIERARCHY
ROOT Hips
{
	OFFSET -3.958830 18.904000 13.208200
	CHANNELS 6 Xposition Yposition Zposition Zrotation Yrotation Xrotation 
	JOINT LHipJoint
	{
		OFFSET 0.000000 0.000000 0.000000
		CHANNELS 3 Zrotation Yrotation Xrotation
		JOINT LeftUpLeg
		{
			OFFSET 1.800000 -1.400000 0.085000
			CHANNELS 3 Zrotation Yrotation Xrotation
			JOINT LeftLeg
			{
				OFFSET 2.215000 -6.000000 0.000000
				CHANNELS 3 Zrotation Yrotation Xrotation
				JOINT LeftFoot
				{
					OFFSET 2.500000 -6.900000 0.000000
					CHANNELS 3 Zrotation Yrotation Xrotation
					JOINT LeftToeBase
					{
						OFFSET 0.200000 -0.500000 1.950000
						CHANNELS 3 Zrotation Yrotation Xrotation
						End Site
						{
							OFFSET 0.000000 0.000000 0.000000
						}
					}
				}
			}
		}
	}
	JOINT RHipJoint
	{
		OFFSET 0.000000 0.000000 0.000000
		CHANNELS 3 Zrotation Yrotation Xrotation
		JOINT RightUpLeg
		{
			OFFSET -1.800000 -1.400000 0.085000
			CHANNELS 3 Zrotation Yrotation Xrotation
			JOINT RightLeg
			{
				OFFSET -2.215000 -6.000000 0.000000
				CHANNELS 3 Zrotation Yrotation Xrotation
				JOINT RightFoot
				{
					OFFSET -2.500000 -6.900000 0.000000
					CHANNELS 3 Zrotation Yrotation Xrotation
					JOINT RightToeBase
					{
						OFFSET -0.200000 -0.500000 1.950000
						CHANNELS 3 Zrotation Yrotation Xrotation
						End Site
						{
							OFFSET 0.000000 0.000000 0.000000
						}
					}
				}
			}
		}
	}
	JOINT LowerBack
	{
		OFFSET 0.000000 0.000000 0.000000
		CHANNELS 3 Zrotation Yrotation Xrotation
		JOINT Spine
		{
			OFFSET -0.087000 1.940000 -0.288900
			CHANNELS 3 Zrotation Yrotation Xrotation
			JOINT Spine1
			{
				OFFSET 0.000000 1.950000 0.060000
				CHANNELS 3 Zrotation Yrotation Xrotation
				JOINT Neck
				{
					OFFSET 0.000000 0.000000 0.000000
					CHANNELS 3 Zrotation Yrotation Xrotation
					JOINT Neck1
					{
						OFFSET 0.000000 1.600000 0.340000
						CHANNELS 3 Zrotation Yrotation Xrotation
						JOINT Head
						{
							OFFSET 0.000000 1.667000 -0.240000
							CHANNELS 3 Zrotation Yrotation Xrotation
							End Site
							{
								OFFSET 0.000000 0.000000 0.000000
							}
						}
					}
				}
				JOINT LeftShoulder
				{
					OFFSET 0.000000 0.000000 0.000000
					CHANNELS 3 Zrotation Yrotation Xrotation
					JOINT LeftArm
					{
						OFFSET 2.700000 1.550000 -0.730000
						CHANNELS 3 Zrotation Yrotation Xrotation
						JOINT LeftForeArm
						{
							OFFSET 5.450000 0.000000 0.000000
							CHANNELS 3 Zrotation Yrotation Xrotation
							JOINT LeftHand
							{
								OFFSET 3.450000 0.000000 0.000000
								CHANNELS 3 Zrotation Yrotation Xrotation
								JOINT LeftHandIndex1
								{
									OFFSET 0.750000 0.000000 0.000000
									CHANNELS 3 Zrotation Yrotation Xrotation
									End Site
									{
										OFFSET 0.000000 0.000000 0.000000
									}
								}
							}
						}
					}
				}
				JOINT RightShoulder
				{
					OFFSET 0.000000 0.000000 0.000000
					CHANNELS 3 Zrotation Yrotation Xrotation
					JOINT RightArm
					{
						OFFSET -2.700000 1.550000 -0.730000
						CHANNELS 3 Zrotation Yrotation Xrotation
						JOINT RightForeArm
						{
							OFFSET -5.450000 0.000000 0.000000
							CHANNELS 3 Zrotation Yrotation Xrotation
							JOINT RightHand
							{
								OFFSET -3.450000 0.000000 0.000000
								CHANNELS 3 Zrotation Yrotation Xrotation
								JOINT RightHandIndex1
								{
									OFFSET -0.750000 0.000000 0.000000
									CHANNELS 3 Zrotation Yrotation Xrotation
									End Site
									{
										OFFSET 0.000000 0.000000 0.000000
									}
								}
							}
						}
					}
				}
			}
		}
	}
}
MOTION
Frames: 7
Frame Time: 0.016667
-0.392080 16.837420 -2.176380 1.876726 -12.967927 -9.048779 -15.956685 12.411997 4.390012 -17.850391 -6.739933 -4.721761 -23.107889 16.623659 38.391715 0.379601 10.751421 1.274893 -0.195680 -0.662690 -0.146020 17.989386 -7.541104 4.126390 6.468055 11.284946 -37.393632 15.889866 -14.947270 49.157356 -1.687250 -8.264375 1.313510 -0.282490 0.992570 0.749540 -2.103023 -5.617226 -9.220416 -2.050336 -0.786333 47.316362 2.350531 -1.724339 7.564026 1.262630 -1.283631 -5.806641 -5.929347 1.144213 35.032253 -9.199020 1.312920 -42.138700 -15.629829 -11.854264 -1.988196 22.684750 -1.357595 -6.832969 89.880477 -60.214686 -52.538348 -3.993111 1.139604 1.507600 0.207540 0.317880 0.262420 13.389110 12.702354 4.972704 3.701415 -13.178504 -16.928200 -81.279251 73.411836 -52.850635 0.629938 1.736629 -0.784480 0.872610 0.667320 -0.103770 
-0.375590 16.767120 -2.150910 1.299034 -13.952098 -9.131080 -15.949913 12.393996 4.373580 -17.516111 -6.867683 -5.029121 -23.464503 16.989937 38.805338 0.513002 10.767738 1.249356 -0.184390 -0.652030 -0.156940 18.002432 -7.444727 4.235950 7.153698 12.036456 -37.263004 16.463474 -15.498161 50.255888 -1.791448 -8.498451 1.240050 -0.336980 0.900170 0.753400 -2.136522 -5.683728 -9.315226 -1.379876 -1.258209 47.645866 2.382106 -1.990867 7.691301 1.260813 -2.779438 -6.410017 -9.313417 2.616897 37.893203 -8.237150 1.425690 -44.095680 -15.304148 -11.923853 -1.400414 23.755362 1.896701 -6.430907 90.319515 -59.210169 -51.717524 -3.947040 1.319712 1.511710 0.114890 0.361270 0.254310 13.015319 13.917428 5.232243 -0.461929 -14.865024 -15.895222 -83.395212 72.959691 -53.625382 0.723767 1.774050 -0.703380 0.785540 0.641570 -0.082050 
-0.372090 16.641920 -2.113760 0.858656 -14.383386 -8.746975 -15.887427 12.202444 4.432040 -17.585768 -7.913108 -6.593399 -23.376250 17.763507 41.490504 0.767058 11.047986 1.117299 -0.156200 -0.655520 -0.149350 18.076961 -7.370515 4.414868 8.722408 13.153413 -37.722774 15.660304 -15.832998 52.831918 -1.949449 -8.817328 1.114501 -0.436610 0.748160 0.799410 -2.349852 -5.445284 -9.482637 0.652911 -2.722622 46.921143 1.383431 -2.617393 7.643186 1.435355 -4.817984 -7.752306 -15.532742 5.589188 44.910619 -6.666690 1.311080 -45.868990 -15.266710 -12.514171 -1.074904 26.821981 5.209402 -5.345501 87.669851 -59.606611 -48.031779 -3.843011 1.538694 1.533050 -0.032650 0.448530 0.235670 12.732092 15.451041 6.476677 -6.508681 -19.011279 -12.938255 -91.034949 71.989262 -58.670797 0.823404 2.192293 -0.557780 0.632560 0.614030 -0.055010 
-0.375560 16.500140 -2.047900 0.748351 -13.478198 -7.367340 -15.778253 11.850526 4.416976 -17.379472 -8.661342 -7.671472 -24.252439 18.477336 42.618337 0.861489 11.260799 1.018228 -0.107300 -0.628360 -0.093270 18.208546 -7.298226 4.680124 7.207153 14.318187 -41.558577 17.350624 -17.987732 56.238408 -2.191851 -9.714510 0.823905 -0.447980 0.652750 0.773420 -2.732087 -4.887776 -9.609776 3.639041 -4.813210 43.848628 -0.763678 -3.864519 8.084003 1.728456 -5.878397 -9.037978 -19.807183 7.776468 49.903762 -5.330240 0.811150 -45.744120 -14.368726 -12.579900 -0.932520 28.147455 6.037423 -4.268566 86.122384 -60.662928 -46.518128 -3.704676 1.554136 1.563620 -0.128740 0.486190 0.217320 11.471263 15.346767 7.517723 -9.318126 -20.160166 -10.045215 -96.777287 70.849065 -63.638076 0.899754 2.497925 -0.517330 0.594470 0.584070 -0.064340 
-0.382110 16.448230 -1.953470 1.162922 -14.743194 -7.342146 -15.777397 11.872846 4.304882 -15.863230 -7.636285 -6.545308 -27.619833 19.504136 39.669169 0.911798 11.272744 1.029893 -0.153730 -0.698720 -0.099260 18.204911 -7.230060 4.796452 5.496094 14.986584 -42.275316 19.227268 -19.442780 57.401980 -2.316588 -10.187298 0.709088 -0.501790 0.635720 0.746990 -2.738298 -4.888285 -9.646121 3.827200 -4.433644 42.737527 -1.106970 -3.532487 8.339233 2.025325 -5.747271 -10.453497 -21.311646 8.782911 53.850999 -5.010840 0.490590 -45.885820 -13.558171 -12.694981 -0.729374 27.296408 6.773409 -3.855091 85.573514 -63.937869 -48.150561 -3.565687 1.302336 1.600410 -0.165480 0.497180 0.193570 10.126270 15.376298 9.213919 -8.923907 -20.998185 -8.326861 -102.160248 69.281337 -70.964571 1.167020 2.570157 -0.531530 0.611600 0.604120 -0.075280 
-0.391960 16.459140 -1.875840 0.376741 -14.938193 -7.791449 -15.700982 12.013876 4.137582 -13.137941 -5.948993 -3.855604 -30.047417 19.912286 36.223118 0.947610 11.164222 1.125479 -0.264350 -0.801370 -0.200020 18.240506 -7.363037 4.813713 4.737186 15.021503 -40.941260 21.481545 -20.468862 56.243190 -2.330189 -10.280109 0.745730 -0.567090 0.710570 0.703290 -2.886422 -4.757582 -9.589340 5.502918 -5.150383 43.758434 -1.941608 -3.742305 7.266428 2.380474 -6.166305 -11.521935 -22.839536 9.291143 54.380204 -4.306010 0.009710 -43.965850 -12.778218 -13.262197 -0.390956 25.246093 7.740054 -4.125336 83.539418 -68.788018 -49.930650 -3.430938 0.916061 1.588680 -0.140140 0.463930 0.202130 8.704011 16.168528 10.394747 -6.581726 -19.456509 -8.420970 -103.435647 69.806041 -74.615892 1.204657 2.924230 -0.572130 0.670940 0.641560 -0.042680 
-0.430770 16.531720 -1.762900 0.180656 -15.749746 -7.146232 -15.753148 12.305946 4.046425 -11.599700 -4.683610 -2.815260 -30.205798 19.559787 34.082294 0.992746 10.859662 1.249011 -0.357620 -0.855390 -0.332100 18.155767 -7.339404 4.815799 4.605287 15.104175 -39.466856 22.529161 -20.251489 54.364647 -2.264930 -9.997619 0.893036 -0.640880 0.752310 0.698450 -2.657441 -5.171146 -9.612694 4.692591 -4.228381 42.855017 -0.482731 -2.902347 6.273457 2.875934 -6.207693 -13.644615 -24.442311 10.089536 57.105872 -3.384540 -0.531140 -41.509050 -13.458546 -13.243328 1.794838 20.985788 8.679820 -2.656724 96.183361 -70.285221 -64.884352 -3.336228 0.076520 1.551610 -0.119990 0.466480 0.220430 8.710093 17.116784 11.738718 -4.448823 -17.323824 -7.717388 -105.437035 70.899768 -81.209951 1.413147 3.384570 -0.538910 0.673380 0.668090 0.016710 
